<svg xmlns="http://www.w3.org/2000/svg" viewBox="0 0 640 480" role="img" aria-labelledby="title desc">
  <title id="title">Sport socks product image</title>
  <desc id="desc">Minimal sport socks illustration for a product card.</desc>
  <rect width="640" height="480" fill="#f2f4f7"/>
  <path d="M214 90h114v213c0 29-11 54-33 75l-40 38c-27 26-70 24-95-5-23-27-20-68 8-91l26-22c13-11 20-27 20-44V90Z" fill="#ffffff" stroke="#d1d5db" stroke-width="14"/>
  <path d="M340 90h114v213c0 29-11 54-33 75l-40 38c-27 26-70 24-95-5-23-27-20-68 8-91l26-22c13-11 20-27 20-44V90Z" fill="#ffffff" stroke="#d1d5db" stroke-width="14"/>
  <path d="M214 128h114M340 128h114" stroke="#111827" stroke-width="18"/>
  <path d="M230 273c34 9 62 8 84-5M356 273c34 9 62 8 84-5" fill="none" stroke="#d9291c" stroke-width="16" stroke-linecap="round"/>
</svg>
